<svg width="96" height="133" viewBox="0 0 96 133" fill="none" xmlns="http://www.w3.org/2000/svg">
<g clip-path="url(#clip0_138_436)">
<rect width="96" height="133" fill="white"/>
<path d="M5.08 100.152C-1.128 100.152 -6.44 98.68 -10.856 95.736C-15.272 92.792 -18.696 88.728 -21.128 83.544C-23.496 78.296 -24.68 72.248 -24.68 65.4C-24.68 58.552 -23.496 52.536 -21.128 47.352C-18.696 42.104 -15.272 38.008 -10.856 35.064C-6.44 32.12 -1.128 30.648 5.08 30.648C11.288 30.648 16.6 32.12 21.016 35.064C25.432 38.008 28.824 42.104 31.192 47.352C33.624 52.536 34.84 58.552 34.84 65.4C34.84 72.248 33.624 78.296 31.192 83.544C28.824 88.728 25.432 92.792 21.016 95.736C16.6 98.68 11.288 100.152 5.08 100.152ZM5.08 87.192C8.088 87.192 10.712 86.296 12.952 84.504C15.256 82.712 17.016 80.216 18.232 77.016C19.512 73.752 20.152 69.88 20.152 65.4C20.152 60.92 19.512 57.08 18.232 53.88C17.016 50.616 15.256 48.12 12.952 46.392C10.712 44.6 8.088 43.704 5.08 43.704C2.072 43.704 -0.583998 44.6 -2.888 46.392C-5.128 48.12 -6.888 50.616 -8.168 53.88C-9.384 57.08 -9.992 60.92 -9.992 65.4C-9.992 69.88 -9.384 73.752 -8.168 77.016C-6.888 80.216 -5.128 82.712 -2.888 84.504C-0.583998 86.296 2.072 87.192 5.08 87.192ZM54.1323 99V48.408L42.1323 51.672V39.96L60.4683 31.8H69.1083V99H54.1323Z" fill="#5DB4C1"/>
</g>
<defs>
<clipPath id="clip0_138_436">
<rect width="96" height="133" fill="white"/>
</clipPath>
</defs>
</svg>
