<svg width="96" height="133" viewBox="0 0 96 133" fill="none" xmlns="http://www.w3.org/2000/svg">
<g clip-path="url(#clip0_138_436)">
<rect width="96" height="133" fill="white"/>
<path d="M5.08 100.152C-1.128 100.152 -6.44 98.68 -10.856 95.736C-15.272 92.792 -18.696 88.728 -21.128 83.544C-23.496 78.296 -24.68 72.248 -24.68 65.4C-24.68 58.552 -23.496 52.536 -21.128 47.352C-18.696 42.104 -15.272 38.008 -10.856 35.064C-6.44 32.12 -1.128 30.648 5.08 30.648C11.288 30.648 16.6 32.12 21.016 35.064C25.432 38.008 28.824 42.104 31.192 47.352C33.624 52.536 34.84 58.552 34.84 65.4C34.84 72.248 33.624 78.296 31.192 83.544C28.824 88.728 25.432 92.792 21.016 95.736C16.6 98.68 11.288 100.152 5.08 100.152ZM5.08 87.192C8.088 87.192 10.712 86.296 12.952 84.504C15.256 82.712 17.016 80.216 18.232 77.016C19.512 73.752 20.152 69.88 20.152 65.4C20.152 60.92 19.512 57.08 18.232 53.88C17.016 50.616 15.256 48.12 12.952 46.392C10.712 44.6 8.088 43.704 5.08 43.704C2.072 43.704 -0.583998 44.6 -2.888 46.392C-5.128 48.12 -6.888 50.616 -8.168 53.88C-9.384 57.08 -9.992 60.92 -9.992 65.4C-9.992 69.88 -9.384 73.752 -8.168 77.016C-6.888 80.216 -5.128 82.712 -2.888 84.504C-0.583998 86.296 2.072 87.192 5.08 87.192ZM43.4808 99V88.344C47.3848 85.144 51.2248 81.976 55.0008 78.84C58.8408 75.704 62.2648 72.6 65.2728 69.528C68.3448 66.392 70.7768 63.352 72.5688 60.408C74.3608 57.4 75.2568 54.52 75.2568 51.768C75.2568 50.168 74.9368 48.696 74.2968 47.352C73.7208 45.944 72.7928 44.856 71.5128 44.088C70.2968 43.256 68.6648 42.84 66.6168 42.84C64.6328 42.84 62.9368 43.288 61.5288 44.184C60.1208 45.08 59.0648 46.328 58.3608 47.928C57.6568 49.464 57.3048 51.256 57.3048 53.304H43.3848C43.5768 48.184 44.7288 43.928 46.8408 40.536C48.9528 37.144 51.7688 34.648 55.2888 33.048C58.8728 31.448 62.8088 30.648 67.0968 30.648C72.0888 30.648 76.2488 31.576 79.5768 33.432C82.9048 35.224 85.4008 37.656 87.0648 40.728C88.7928 43.736 89.6567 47.096 89.6567 50.808C89.6567 53.752 89.1448 56.6 88.1208 59.352C87.0968 62.04 85.6888 64.664 83.8968 67.224C82.1048 69.72 80.0568 72.152 77.7528 74.52C75.5128 76.824 73.1448 79.064 70.6488 81.24C68.1528 83.352 65.6888 85.368 63.2568 87.288H91.0008V99H43.4808Z" fill="#5DB4C1"/>
</g>
<defs>
<clipPath id="clip0_138_436">
<rect width="96" height="133" fill="white"/>
</clipPath>
</defs>
</svg>
