<svg width="96" height="133" viewBox="0 0 96 133" fill="none" xmlns="http://www.w3.org/2000/svg">
<g clip-path="url(#clip0_138_436)">
<rect width="96" height="133" fill="white"/>
<path d="M5.08 100.152C-1.128 100.152 -6.44 98.68 -10.856 95.736C-15.272 92.792 -18.696 88.728 -21.128 83.544C-23.496 78.296 -24.68 72.248 -24.68 65.4C-24.68 58.552 -23.496 52.536 -21.128 47.352C-18.696 42.104 -15.272 38.008 -10.856 35.064C-6.44 32.12 -1.128 30.648 5.08 30.648C11.288 30.648 16.6 32.12 21.016 35.064C25.432 38.008 28.824 42.104 31.192 47.352C33.624 52.536 34.84 58.552 34.84 65.4C34.84 72.248 33.624 78.296 31.192 83.544C28.824 88.728 25.432 92.792 21.016 95.736C16.6 98.68 11.288 100.152 5.08 100.152ZM5.08 87.192C8.088 87.192 10.712 86.296 12.952 84.504C15.256 82.712 17.016 80.216 18.232 77.016C19.512 73.752 20.152 69.88 20.152 65.4C20.152 60.92 19.512 57.08 18.232 53.88C17.016 50.616 15.256 48.12 12.952 46.392C10.712 44.6 8.088 43.704 5.08 43.704C2.072 43.704 -0.583998 44.6 -2.888 46.392C-5.128 48.12 -6.888 50.616 -8.168 53.88C-9.384 57.08 -9.992 60.92 -9.992 65.4C-9.992 69.88 -9.384 73.752 -8.168 77.016C-6.888 80.216 -5.128 82.712 -2.888 84.504C-0.583998 86.296 2.072 87.192 5.08 87.192ZM68.1483 100.152C63.7323 100.152 59.6683 99.352 55.9563 97.752C52.3083 96.152 49.3643 93.72 47.1243 90.456C44.9483 87.128 43.7963 82.904 43.6683 77.784H57.6843C57.7483 79.768 58.1963 81.56 59.0283 83.16C59.8603 84.696 61.0443 85.912 62.5803 86.808C64.1163 87.704 65.9723 88.152 68.1483 88.152C70.1323 88.152 71.8283 87.768 73.2363 87C74.7083 86.168 75.7963 85.112 76.5003 83.832C77.2683 82.488 77.6523 80.952 77.6523 79.224C77.6523 77.24 77.1723 75.576 76.2123 74.232C75.2523 72.824 73.8763 71.768 72.0843 71.064C70.2923 70.296 68.2123 69.912 65.8443 69.912H60.8523V58.2H65.8443C68.5963 58.2 70.9963 57.56 73.0443 56.28C75.0923 54.936 76.1163 52.888 76.1163 50.136C76.1163 47.832 75.3803 46.04 73.9083 44.76C72.4363 43.416 70.4843 42.744 68.0523 42.744C65.1083 42.744 62.8683 43.608 61.3323 45.336C59.7963 47 58.9323 49.016 58.7403 51.384H44.8203C45.0123 47.032 46.1003 43.32 48.0843 40.248C50.0683 37.112 52.7563 34.744 56.1483 33.144C59.6043 31.48 63.5723 30.648 68.0523 30.648C72.7883 30.648 76.8203 31.48 80.1483 33.144C83.4763 34.808 85.9723 37.048 87.6362 39.864C89.3643 42.616 90.2283 45.624 90.2283 48.888C90.2283 51.64 89.7163 54.04 88.6923 56.088C87.6683 58.072 86.3243 59.736 84.6603 61.08C82.9963 62.36 81.2363 63.288 79.3803 63.864C81.8763 64.376 84.0203 65.368 85.8123 66.84C87.6683 68.248 89.1083 70.072 90.1323 72.312C91.1563 74.488 91.6683 76.984 91.6683 79.8C91.6683 83.512 90.7403 86.936 88.8843 90.072C87.0923 93.144 84.4363 95.608 80.9163 97.464C77.4603 99.256 73.2043 100.152 68.1483 100.152Z" fill="#5DB4C1"/>
</g>
<defs>
<clipPath id="clip0_138_436">
<rect width="96" height="133" fill="white"/>
</clipPath>
</defs>
</svg>
