<svg width="151" height="36" viewBox="0 0 151 36" fill="none" xmlns="http://www.w3.org/2000/svg">
<path d="M150.023 20.2886C147.946 20.2886 146.245 18.6403 146.179 16.565L145.811 4.9978H150.509L150.023 20.2886ZM148.176 27.8368C147.377 27.8368 146.718 27.5993 146.2 27.1241C145.703 26.6274 145.455 26.0227 145.455 25.31C145.455 24.5973 145.703 24.0033 146.2 23.5282C146.718 23.0315 147.377 22.7831 148.176 22.7831C148.975 22.7831 149.623 23.0315 150.12 23.5282C150.617 24.0033 150.865 24.5973 150.865 25.31C150.865 26.0227 150.617 26.6274 150.12 27.1241C149.623 27.5993 148.975 27.8368 148.176 27.8368Z" fill="white"/>
<path d="M92.035 28.0635C90.6744 28.0635 89.5514 27.8475 88.6659 27.4156C87.7804 26.962 87.1217 26.3681 86.6897 25.6338C86.2794 24.8779 86.0742 24.0464 86.0742 23.1393C86.0742 22.1458 86.3226 21.2712 86.8193 20.5153C87.3377 19.7594 88.1043 19.1654 89.1194 18.7335C90.1561 18.3015 91.4519 18.0856 93.0069 18.0856H97.0564C97.0564 17.2865 96.9484 16.6278 96.7324 16.1094C96.5165 15.5695 96.1817 15.1699 95.7282 14.9108C95.2746 14.6516 94.6699 14.522 93.914 14.522C93.0933 14.522 92.3914 14.7056 91.8083 15.0728C91.2467 15.4183 90.9012 15.9582 90.7716 16.6926H86.5278C86.6357 15.5263 87.0137 14.522 87.6616 13.6797C88.3311 12.8159 89.2058 12.1463 90.2857 11.6712C91.3871 11.1961 92.6074 10.9585 93.9464 10.9585C95.4798 10.9585 96.808 11.2177 97.9311 11.736C99.0541 12.2543 99.918 12.9994 100.523 13.9713C101.127 14.9432 101.43 16.1418 101.43 17.5672V27.6747H97.7367L97.2508 25.1802C97.0132 25.6122 96.7324 26.0009 96.4085 26.3465C96.0845 26.692 95.7066 26.9944 95.2746 27.2536C94.8427 27.5127 94.3567 27.7071 93.8168 27.8367C93.2769 27.9879 92.683 28.0635 92.035 28.0635ZM93.0717 24.6943C93.6332 24.6943 94.13 24.5971 94.5619 24.4027C95.0155 24.1868 95.4042 23.906 95.7282 23.5605C96.0521 23.1933 96.3005 22.783 96.4733 22.3294C96.6676 21.8543 96.7972 21.3467 96.862 20.8068V20.7744H93.5252C92.8557 20.7744 92.305 20.8608 91.8731 21.0336C91.4627 21.1848 91.1604 21.4115 90.966 21.7139C90.7716 22.0163 90.6744 22.3618 90.6744 22.7506C90.6744 23.1825 90.7716 23.5389 90.966 23.8196C91.1604 24.1004 91.4411 24.3164 91.8083 24.4675C92.1754 24.6187 92.5966 24.6943 93.0717 24.6943Z" fill="white"/>
<path d="M132.53 28.0635C131.169 28.0635 130.046 27.8475 129.161 27.4156C128.275 26.962 127.616 26.3681 127.184 25.6338C126.774 24.8779 126.569 24.0464 126.569 23.1393C126.569 22.1458 126.817 21.2712 127.314 20.5153C127.832 19.7594 128.599 19.1654 129.614 18.7335C130.651 18.3015 131.947 18.0856 133.502 18.0856H137.551C137.551 17.2865 137.443 16.6278 137.227 16.1094C137.011 15.5695 136.676 15.1699 136.223 14.9108C135.769 14.6516 135.165 14.522 134.409 14.522C133.588 14.522 132.886 14.7056 132.303 15.0728C131.741 15.4183 131.396 15.9582 131.266 16.6926H127.022C127.13 15.5263 127.508 14.522 128.156 13.6797C128.826 12.8159 129.7 12.1463 130.78 11.6712C131.882 11.1961 133.102 10.9585 134.441 10.9585C135.974 10.9585 137.303 11.2177 138.426 11.736C139.549 12.2543 140.413 12.9994 141.017 13.9713C141.622 14.9432 141.924 16.1418 141.924 17.5672V27.6747H138.231L137.745 25.1802C137.508 25.6122 137.227 26.0009 136.903 26.3465C136.579 26.692 136.201 26.9944 135.769 27.2536C135.337 27.5127 134.851 27.7071 134.311 27.8367C133.772 27.9879 133.178 28.0635 132.53 28.0635ZM133.566 24.6943C134.128 24.6943 134.625 24.5971 135.057 24.4027C135.51 24.1868 135.899 23.906 136.223 23.5605C136.547 23.1933 136.795 22.783 136.968 22.3294C137.162 21.8543 137.292 21.3467 137.357 20.8068V20.7744H134.02C133.35 20.7744 132.8 20.8608 132.368 21.0336C131.957 21.1848 131.655 21.4115 131.461 21.7139C131.266 22.0163 131.169 22.3618 131.169 22.7506C131.169 23.1825 131.266 23.5389 131.461 23.8196C131.655 24.1004 131.936 24.3164 132.303 24.4675C132.67 24.6187 133.091 24.6943 133.566 24.6943Z" fill="white"/>
<path d="M118.868 27.6747V11.3472C121.284 11.3472 123.242 13.3053 123.242 15.7207V27.6747H118.868ZM121.071 9.1119C120.294 9.1119 119.646 8.88513 119.127 8.43159C118.631 7.95645 118.382 7.36253 118.382 6.64982C118.382 5.93712 118.631 5.35399 119.127 4.90045C119.646 4.42531 120.294 4.18774 121.071 4.18774C121.87 4.18774 122.518 4.42531 123.015 4.90045C123.533 5.35399 123.792 5.93712 123.792 6.64982C123.792 7.36253 123.533 7.95645 123.015 8.43159C122.518 8.88513 121.87 9.1119 121.071 9.1119Z" fill="white"/>
<path d="M112.784 27.6746C111.64 27.6746 110.636 27.5019 109.772 27.1563C108.929 26.7891 108.271 26.1952 107.795 25.3745C107.32 24.5322 107.083 23.3876 107.083 21.9406V15.0079H104.297V11.3472H107.083L107.569 6.90894H111.456V11.3472H115.765V15.0079H111.456V22.0054C111.456 22.7397 111.618 23.2472 111.942 23.528C112.266 23.8087 112.817 23.9491 113.594 23.9491H115.732V27.6746H112.784Z" fill="white"/>
<path d="M65.8716 34.8018V11.3472H69.7591L70.245 13.615C70.5906 13.1398 71.0009 12.7079 71.4761 12.3191C71.9512 11.9088 72.5127 11.5848 73.1606 11.3472C73.8301 11.0881 74.6076 10.9585 75.4931 10.9585C77.0265 10.9585 78.3764 11.3364 79.5426 12.0923C80.7088 12.8483 81.6267 13.8741 82.2962 15.1699C82.9874 16.4442 83.3329 17.902 83.3329 19.5434C83.3329 21.1848 82.9874 22.6534 82.2962 23.9492C81.6051 25.2234 80.6765 26.2277 79.5102 26.962C78.344 27.6963 77.0157 28.0635 75.5255 28.0635C74.3161 28.0635 73.2686 27.8475 72.3831 27.4156C71.5192 26.962 70.8065 26.3465 70.245 25.569V30.4284C70.245 32.8437 68.287 34.8018 65.8716 34.8018ZM74.4889 24.2408C75.3528 24.2408 76.1087 24.0464 76.7566 23.6576C77.4261 23.2689 77.9444 22.7182 78.3116 22.0055C78.6787 21.2928 78.8623 20.4721 78.8623 19.5434C78.8623 18.6147 78.6787 17.794 78.3116 17.0813C77.9444 16.347 77.4261 15.7855 76.7566 15.3967C76.1087 14.9864 75.3528 14.7812 74.4889 14.7812C73.6466 14.7812 72.8907 14.9864 72.2212 15.3967C71.5732 15.7855 71.0549 16.3362 70.6662 17.0489C70.299 17.7616 70.1154 18.5823 70.1154 19.511C70.1154 20.4397 70.299 21.2712 70.6662 22.0055C71.0549 22.7182 71.5732 23.2689 72.2212 23.6576C72.8907 24.0464 73.6466 24.2408 74.4889 24.2408Z" fill="white"/>
<path d="M54.8999 28.0636C53.2586 28.0636 51.7899 27.7828 50.4941 27.2213C49.2199 26.6597 48.2048 25.839 47.4489 24.7592C46.7146 23.6793 46.3367 22.3727 46.3151 20.8393H50.9477C50.9693 21.5088 51.142 22.1135 51.466 22.6535C51.7899 23.1934 52.2327 23.6253 52.7942 23.9493C53.3773 24.2517 54.0685 24.4028 54.8675 24.4028C55.5587 24.4028 56.1526 24.2948 56.6493 24.0789C57.1676 23.8413 57.5672 23.5173 57.848 23.107C58.1287 22.6967 58.2691 22.2107 58.2691 21.6492C58.2691 21.0013 58.1071 20.4613 57.7832 20.0294C57.4808 19.5975 57.0489 19.2303 56.4873 18.9279C55.9474 18.6256 55.3103 18.3556 54.576 18.1181C53.8633 17.8589 53.1074 17.5889 52.3083 17.3082C50.5157 16.725 49.1443 15.9475 48.194 14.9757C47.2653 14.0038 46.801 12.7188 46.801 11.1206C46.801 9.75994 47.125 8.59369 47.7729 7.62182C48.4424 6.64994 49.3603 5.90484 50.5265 5.38651C51.6928 4.86817 53.021 4.60901 54.5112 4.60901C56.0446 4.60901 57.3836 4.87897 58.5283 5.4189C59.6945 5.93723 60.6124 6.69314 61.2819 7.68661C61.973 8.68008 62.3294 9.84633 62.351 11.1854H57.686C57.6644 10.6886 57.5132 10.2243 57.2324 9.79233C56.9733 9.33879 56.6061 8.98244 56.131 8.72327C55.6558 8.44251 55.0943 8.30213 54.4464 8.30213C53.8849 8.28053 53.3665 8.36692 52.8914 8.56129C52.4379 8.75567 52.0707 9.04723 51.79 9.43598C51.5308 9.80313 51.4012 10.2675 51.4012 10.829C51.4012 11.3689 51.5308 11.8225 51.79 12.1896C52.0707 12.5568 52.4487 12.8807 52.9238 13.1615C53.3989 13.4207 53.9605 13.669 54.6084 13.9066C55.2563 14.1226 55.9582 14.3493 56.7141 14.5869C57.8372 14.9757 58.8738 15.44 59.8241 15.9799C60.7744 16.4983 61.5303 17.1786 62.0918 18.0209C62.6533 18.8632 62.9341 19.9754 62.9341 21.3576C62.9341 22.5455 62.6209 23.6469 61.9946 24.662C61.3683 25.6771 60.4612 26.4978 59.2734 27.1241C58.1071 27.7504 56.6493 28.0636 54.8999 28.0636Z" fill="white"/>
<path d="M2.35 34.48H18.5C19.5 28.5 24.9683 25 29.5 25V34.48H31.78C32.5256 34.48 33.13 33.8756 33.13 33.13V2.35C33.13 1.60442 32.5256 1 31.78 1H2.35C1.60442 1 1 1.60441 1 2.35V33.13C1 33.8756 1.60442 34.48 2.35 34.48Z" fill="white" stroke="white" stroke-width="1.89"/>
<rect x="12.2893" y="9.00282" width="1.80014" height="3.67631" rx="0.900072" transform="rotate(10.76 12.2893 9.00282)" fill="#5DB4C1" stroke="#5DB4C1" stroke-width="0.45"/>
<rect x="19.3177" y="10.7089" width="1.80014" height="3.67631" rx="0.900072" transform="rotate(10.76 19.3177 10.7089)" fill="#5DB4C1" stroke="#5DB4C1" stroke-width="0.45"/>
<path fill-rule="evenodd" clip-rule="evenodd" d="M15.8191 18.9455C15.9923 18.6625 16.3607 18.5743 16.6419 18.7487C18.2078 19.7193 19.8053 19.6605 20.8467 18.7967C21.1016 18.5853 21.4786 18.6218 21.6886 18.8784C21.8987 19.1349 21.8623 19.5143 21.6074 19.7257C20.0725 20.9988 17.8961 20.9399 16.0147 19.7737C15.7334 19.5994 15.6459 19.2286 15.8191 18.9455Z" fill="#5DB4C1" stroke="#5DB4C1" stroke-width="1.05" stroke-linecap="round"/>
</svg>
