<svg width="482" height="594" viewBox="0 0 482 594" fill="none" xmlns="http://www.w3.org/2000/svg">
<path d="M370.782 382.666C424.823 359.372 403.704 319.23 386.389 302.071H381.031L358.437 407.589L365.658 410.851C372.646 410.385 373.811 408.754 378.236 404.328C391.513 387.79 377.072 383.132 372.646 384.762C371.093 385.15 368.546 385.275 370.782 382.666Z" fill="#81C5CF"/>
<rect x="135.765" y="120.151" width="279.519" height="279.519" rx="47.5" transform="rotate(10.7608 135.765 120.151)" fill="#81C5CF"/>
<path d="M66.3784 571.334L138.423 392.682L211.662 407.641L139.616 588.151C138.896 589.956 137.148 591.14 135.205 591.14H56.6233C52.1816 591.14 50.1699 585.587 53.5809 582.742L65.0155 573.206C65.6172 572.704 66.0854 572.061 66.3784 571.334Z" fill="#81C5CF"/>
<path d="M241.116 589.171C241.603 566.424 243.462 468.862 240.759 416.235L309.763 429.449C315.047 441.201 315.639 528.449 315.265 572.902C315.252 574.428 315.972 575.837 317.201 576.741L329 585.424C332.694 588.143 330.774 594 326.187 594H245.843C243.175 594 241.059 591.839 241.116 589.171Z" fill="#81C5CF"/>
<path d="M384.525 303.469L363.562 410.152" stroke="#093F57" stroke-width="9.5" stroke-linecap="round"/>
<path d="M118.743 212.348C101.965 207.436 79.1437 193.157 74.2449 184.408C82.7466 180.714 107.867 170.563 128.066 166.97L118.743 212.348Z" fill="#E96A0B"/>
<path d="M392.905 265.457C410.26 267.558 436.802 263.294 444.754 257.185C438.397 250.438 418.21 231.811 401.063 220.545L392.905 265.457Z" fill="#E96A0B"/>
<path d="M433.674 223.519C305.84 130.709 156.742 137.324 102.778 155.533C135.305 69.8612 220.521 47.4889 259.063 47.0117C261.897 35.42 285.673 36.7366 297.426 39.1513C327.028 43.6592 331.219 55.365 331.752 61.9462C414.551 97.0094 434.2 184.271 433.674 223.519Z" fill="#F88402"/>
<path d="M102.847 155.302C84.4955 163.679 77.5552 176.879 74.3053 184.312C74.2758 184.38 74.3454 184.445 74.4145 184.42C235.194 124.815 384.686 209.491 444.955 257.225C447.339 243.417 438.954 228.053 433.866 223.313C367.348 161.342 183.413 118.529 102.847 155.302Z" fill="#FF941D"/>
<path d="M193.719 142.432C205.18 88.8536 234.776 57.2954 248.194 47.9614L256.748 47.6162C242.374 58.1204 225.503 116.194 218.864 143.918L193.719 142.432Z" fill="#E96A0B" stroke="#E96A0B" stroke-width="1.5048" stroke-linejoin="round"/>
<path d="M353.997 177.433C364.589 123.676 349.638 80.8946 340.988 67.0266L333.263 63.3366C342.331 78.6573 335.34 139.781 330.51 167.876L353.997 177.433Z" fill="#E96A0B" stroke="#E96A0B" stroke-width="1.5048" stroke-linejoin="round"/>
<path d="M96.9645 227.736L118.431 249.894L100.029 336.545C87.73 331.328 39.9322 282.505 34.5748 267.597C30.382 258.746 33.4102 226.523 35.9724 208.432L33.5399 207.816C13.5989 202.766 -0.461772 185.115 5.73814 165.501C6.91015 161.793 8.20789 158.103 9.57861 154.513C15.9122 137.926 32.9266 128.855 50.6606 129.73C55.6326 129.976 59.9423 126.322 60.5129 121.376L61.595 111.998C69.2818 94.7612 79.9967 105.01 82.0931 111.998C83.0633 115.232 86.8636 172.824 88.9555 209.436C89.3477 216.299 92.1813 222.798 96.9645 227.736Z" fill="#81C5CF"/>
<path d="M59.7316 131.332C72.3099 142.978 80.2297 198.416 38.7677 207.268" stroke="#093F57" stroke-width="9.5" stroke-linecap="round"/>
<rect x="223.739" y="233.356" width="8.21348" height="19.627" rx="4.10674" transform="rotate(10.76 223.739 233.356)" fill="#093F57"/>
<rect x="266.495" y="243.733" width="8.21348" height="19.627" rx="4.10674" transform="rotate(10.76 266.495 243.733)" fill="#093F57"/>
<path d="M243.785 283.669C252.636 287.239 262.326 287.239 268.942 283.669" stroke="#093F57" stroke-width="15.2" stroke-linecap="round"/>
</svg>
