<svg width="772" height="744" viewBox="0 0 772 744" fill="none" xmlns="http://www.w3.org/2000/svg">
<g clip-path="url(#clip0_137_276)">
<path d="M642.181 415.13C642.181 433.836 627.017 449 608.311 449H359.859C329.685 449 314.573 412.517 335.91 391.181L584.361 142.729C605.698 121.392 642.181 136.504 642.181 166.679V415.13Z" fill="white" fill-opacity="0.12"/>
<circle cx="460.058" cy="-63.0325" r="181.967" transform="rotate(180 460.058 -63.0325)" fill="white" fill-opacity="0.12"/>
<path d="M678.181 -211.13C678.181 -229.836 693.345 -245 712.051 -245H960.502C990.677 -245 1005.79 -208.517 984.452 -187.181L736 61.2709C714.664 82.6077 678.181 67.4962 678.181 37.3213V-211.13Z" fill="white" fill-opacity="0.12"/>
<circle cx="860.148" cy="267.033" r="181.967" fill="white" fill-opacity="0.12"/>
<path d="M0 518.87C0 500.164 15.1641 485 33.8699 485H282.321C312.496 485 327.608 521.483 306.271 542.819L57.8195 791.271C36.4827 812.608 0 797.496 0 767.321L0 518.87Z" fill="white" fill-opacity="0.12"/>
<path d="M278.09 666.967C278.09 702.957 288.763 738.139 308.758 768.063C328.752 797.988 357.172 821.311 390.422 835.083C423.672 848.856 460.26 852.46 495.558 845.438C530.856 838.417 563.28 821.087 588.728 795.638C614.177 770.189 631.508 737.766 638.529 702.468C645.55 667.169 641.947 630.582 628.174 597.332C614.401 564.081 591.078 535.662 561.154 515.667C531.229 495.672 496.048 485 460.058 485L460.058 666.967H278.09Z" fill="white" fill-opacity="0.12"/>
<path d="M678.181 518.87C678.181 500.164 693.345 485 712.051 485H960.502C990.677 485 1005.79 521.483 984.452 542.819L736 791.271C714.664 812.608 678.181 797.496 678.181 767.321V518.87Z" fill="white" fill-opacity="0.12"/>
</g>
<defs>
<clipPath id="clip0_137_276">
<rect width="772" height="744" fill="white"/>
</clipPath>
</defs>
</svg>
