<svg width="163" height="50" viewBox="0 0 163 50" fill="none" xmlns="http://www.w3.org/2000/svg">
<g filter="url(#filter0_d_2958_23855)">
<rect x="1" y="0.475098" width="49.05" height="49.05" rx="9.97762" fill="#EFE9DC"/>
<g filter="url(#filter1_d_2958_23855)">
<path d="M10.3359 12.0413L10.15 10.0005L12.8859 9.34131H38.2359L40.6 10.0005L41.0859 12.5663V37.7663L40.45 40.4505L36.8109 40.8413V31.9913L33.25 32.3505L30.55 34.0005L27.85 37.3005L27.5109 40.8413H12.8859L10.3359 40.4505V38.1413V12.0413Z" fill="#81C5CF"/>
<rect x="21.217" y="17.264" width="1.15247" height="2.96835" rx="0.576236" transform="rotate(10.76 21.217 17.264)" fill="#093F57" stroke="#093F57" stroke-width="0.154285"/>
<rect x="28.0194" y="18.9154" width="1.15247" height="2.96835" rx="0.576236" transform="rotate(10.76 28.0194 18.9154)" fill="#093F57" stroke="#093F57" stroke-width="0.154285"/>
<path fill-rule="evenodd" clip-rule="evenodd" d="M24.3986 26.5423C24.5663 26.2683 24.9228 26.183 25.195 26.3518C26.7106 27.2912 28.2567 27.2343 29.2647 26.3982C29.5114 26.1936 29.8762 26.229 30.0795 26.4773C30.2829 26.7256 30.2477 27.0928 30.001 27.2974C28.5154 28.5296 26.4089 28.4726 24.5879 27.3439C24.3157 27.1751 24.231 26.8163 24.3986 26.5423Z" fill="#093F57" stroke="#093F57" stroke-width="0.321124" stroke-linecap="round"/>
<path fill-rule="evenodd" clip-rule="evenodd" d="M11.4251 10.0751C10.9694 10.0751 10.6001 10.4445 10.6001 10.9001V39.392C10.6001 39.8476 10.9694 40.2169 11.4251 40.2169H26.7346C27.0828 34.5127 31.8363 31.3909 36.572 31.3909H37.247V32.0659V40.2169H39.5226C39.9782 40.2169 40.3476 39.8476 40.3476 39.392V10.9001C40.3476 10.4445 39.9782 10.0751 39.5226 10.0751H11.4251ZM9.25006 10.9001C9.25006 9.69888 10.2238 8.7251 11.4251 8.7251H39.5226C40.7238 8.7251 41.6976 9.69888 41.6976 10.9001V39.392C41.6976 40.5932 40.7238 41.567 39.5226 41.567H36.572H35.897V40.892V32.7645C31.7994 33.0511 28.0642 35.943 28.0642 40.892V41.567H27.3892H11.4251C10.2238 41.567 9.25006 40.5932 9.25006 39.392V10.9001Z" fill="#C0E2E7"/>
</g>
</g>
<path d="M161.258 28.576C159.181 28.576 157.48 26.9277 157.414 24.8523L157.046 13.2852H161.744L161.258 28.576ZM159.411 36.1242C158.612 36.1242 157.953 35.8866 157.435 35.4115C156.938 34.9147 156.69 34.31 156.69 33.5973C156.69 32.8846 156.938 32.2907 157.435 31.8155C157.953 31.3188 158.612 31.0704 159.411 31.0704C160.21 31.0704 160.858 31.3188 161.355 31.8155C161.852 32.2907 162.1 32.8846 162.1 33.5973C162.1 34.31 161.852 34.9147 161.355 35.4115C160.858 35.8866 160.21 36.1242 159.411 36.1242Z" fill="white"/>
<path d="M103.27 36.3511C101.909 36.3511 100.786 36.1351 99.9009 35.7032C99.0154 35.2496 98.3567 34.6557 97.9247 33.9214C97.5144 33.1655 97.3092 32.334 97.3092 31.4269C97.3092 30.4334 97.5576 29.5588 98.0543 28.8028C98.5726 28.0469 99.3393 27.453 100.354 27.0211C101.391 26.5891 102.687 26.3732 104.242 26.3732H108.291C108.291 25.5741 108.183 24.9154 107.967 24.397C107.751 23.8571 107.417 23.4575 106.963 23.1984C106.51 22.9392 105.905 22.8096 105.149 22.8096C104.328 22.8096 103.626 22.9932 103.043 23.3604C102.482 23.7059 102.136 24.2458 102.007 24.9801H97.7627C97.8707 23.8139 98.2487 22.8096 98.8966 21.9673C99.5661 21.1035 100.441 20.4339 101.521 19.9588C102.622 19.4837 103.842 19.2461 105.181 19.2461C106.715 19.2461 108.043 19.5053 109.166 20.0236C110.289 20.5419 111.153 21.287 111.758 22.2589C112.362 23.2308 112.665 24.4294 112.665 25.8548V35.9623H108.972L108.486 33.4678C108.248 33.8998 107.967 34.2885 107.643 34.6341C107.319 34.9796 106.942 35.282 106.51 35.5412C106.078 35.8003 105.592 35.9947 105.052 36.1243C104.512 36.2755 103.918 36.3511 103.27 36.3511ZM104.307 32.9819C104.868 32.9819 105.365 32.8847 105.797 32.6903C106.25 32.4744 106.639 32.1936 106.963 31.8481C107.287 31.4809 107.535 31.0706 107.708 30.617C107.903 30.1419 108.032 29.6343 108.097 29.0944V29.062H104.76C104.091 29.062 103.54 29.1484 103.108 29.3212C102.698 29.4724 102.395 29.6991 102.201 30.0015C102.007 30.3039 101.909 30.6494 101.909 31.0382C101.909 31.4701 102.007 31.8265 102.201 32.1072C102.395 32.388 102.676 32.604 103.043 32.7551C103.41 32.9063 103.832 32.9819 104.307 32.9819Z" fill="white"/>
<path d="M143.765 36.3511C142.404 36.3511 141.281 36.1351 140.396 35.7032C139.51 35.2496 138.851 34.6557 138.419 33.9214C138.009 33.1655 137.804 32.334 137.804 31.4269C137.804 30.4334 138.052 29.5588 138.549 28.8028C139.067 28.0469 139.834 27.453 140.849 27.0211C141.886 26.5891 143.182 26.3732 144.737 26.3732H148.786C148.786 25.5741 148.678 24.9154 148.462 24.397C148.246 23.8571 147.911 23.4575 147.458 23.1984C147.004 22.9392 146.4 22.8096 145.644 22.8096C144.823 22.8096 144.121 22.9932 143.538 23.3604C142.976 23.7059 142.631 24.2458 142.501 24.9801H138.257C138.365 23.8139 138.743 22.8096 139.391 21.9673C140.061 21.1035 140.936 20.4339 142.015 19.9588C143.117 19.4837 144.337 19.2461 145.676 19.2461C147.21 19.2461 148.538 19.5053 149.661 20.0236C150.784 20.5419 151.648 21.287 152.252 22.2589C152.857 23.2308 153.16 24.4294 153.16 25.8548V35.9623H149.466L148.98 33.4678C148.743 33.8998 148.462 34.2885 148.138 34.6341C147.814 34.9796 147.436 35.282 147.004 35.5412C146.572 35.8003 146.086 35.9947 145.547 36.1243C145.007 36.2755 144.413 36.3511 143.765 36.3511ZM144.801 32.9819C145.363 32.9819 145.86 32.8847 146.292 32.6903C146.745 32.4744 147.134 32.1936 147.458 31.8481C147.782 31.4809 148.03 31.0706 148.203 30.617C148.397 30.1419 148.527 29.6343 148.592 29.0944V29.062H145.255C144.585 29.062 144.035 29.1484 143.603 29.3212C143.192 29.4724 142.89 29.6991 142.696 30.0015C142.501 30.3039 142.404 30.6494 142.404 31.0382C142.404 31.4701 142.501 31.8265 142.696 32.1072C142.89 32.388 143.171 32.604 143.538 32.7551C143.905 32.9063 144.326 32.9819 144.801 32.9819Z" fill="white"/>
<path d="M130.103 35.962V19.6346C132.519 19.6346 134.477 21.5926 134.477 24.008V35.962H130.103ZM132.306 17.3993C131.529 17.3993 130.881 17.1725 130.362 16.7189C129.866 16.2438 129.617 15.6499 129.617 14.9372C129.617 14.2245 129.866 13.6413 130.362 13.1878C130.881 12.7127 131.529 12.4751 132.306 12.4751C133.105 12.4751 133.753 12.7127 134.25 13.1878C134.768 13.6413 135.027 14.2245 135.027 14.9372C135.027 15.6499 134.768 16.2438 134.25 16.7189C133.753 17.1725 133.105 17.3993 132.306 17.3993Z" fill="white"/>
<path d="M124.019 35.962C122.875 35.962 121.871 35.7892 121.007 35.4437C120.164 35.0765 119.506 34.4826 119.031 33.6619C118.555 32.8196 118.318 31.6749 118.318 30.2279V23.2952H115.532V19.6345H118.318L118.804 15.1963H122.691V19.6345H127V23.2952H122.691V30.2927C122.691 31.027 122.853 31.5346 123.177 31.8153C123.501 32.0961 124.052 32.2365 124.829 32.2365H126.968V35.962H124.019Z" fill="white"/>
<path d="M77.1067 43.0894V19.6348H80.9942L81.4801 21.9025C81.8257 21.4274 82.236 20.9955 82.7112 20.6067C83.1863 20.1964 83.7478 19.8724 84.3957 19.6348C85.0653 19.3757 85.8428 19.2461 86.7282 19.2461C88.2616 19.2461 89.6115 19.624 90.7777 20.3799C91.944 21.1358 92.8618 22.1617 93.5314 23.4575C94.2225 24.7318 94.568 26.1896 94.568 27.831C94.568 29.4724 94.2225 30.941 93.5314 32.2368C92.8402 33.511 91.9116 34.5153 90.7453 35.2496C89.5791 35.9839 88.2508 36.3511 86.7606 36.3511C85.5512 36.3511 84.5037 36.1351 83.6182 35.7032C82.7544 35.2496 82.0416 34.6341 81.4801 33.8566V38.716C81.4801 41.1313 79.5221 43.0894 77.1067 43.0894ZM85.724 32.5284C86.5879 32.5284 87.3438 32.334 87.9917 31.9452C88.6612 31.5565 89.1795 31.0058 89.5467 30.2931C89.9138 29.5803 90.0974 28.7597 90.0974 27.831C90.0974 26.9023 89.9138 26.0816 89.5467 25.3689C89.1795 24.6346 88.6612 24.0731 87.9917 23.6843C87.3438 23.274 86.5879 23.0688 85.724 23.0688C84.8817 23.0688 84.1258 23.274 83.4563 23.6843C82.8084 24.0731 82.29 24.6238 81.9013 25.3365C81.5341 26.0492 81.3505 26.8699 81.3505 27.7986C81.3505 28.7273 81.5341 29.5588 81.9013 30.2931C82.29 31.0058 82.8084 31.5565 83.4563 31.9452C84.1258 32.334 84.8817 32.5284 85.724 32.5284Z" fill="white"/>
<path d="M66.1349 36.351C64.4935 36.351 63.0249 36.0703 61.7291 35.5087C60.4549 34.9472 59.4398 34.1265 58.6839 33.0467C57.9496 31.9668 57.5716 30.6602 57.55 29.1268H62.1826C62.2042 29.7963 62.377 30.401 62.701 30.9409C63.0249 31.4809 63.4677 31.9128 64.0292 32.2368C64.6123 32.5391 65.3034 32.6903 66.1025 32.6903C66.7936 32.6903 67.3876 32.5823 67.8843 32.3664C68.4026 32.1288 68.8022 31.8048 69.0829 31.3945C69.3637 30.9841 69.5041 30.4982 69.5041 29.9367C69.5041 29.2888 69.3421 28.7488 69.0182 28.3169C68.7158 27.8849 68.2839 27.5178 67.7223 27.2154C67.1824 26.9131 66.5453 26.6431 65.811 26.4055C65.0983 26.1464 64.3424 25.8764 63.5433 25.5956C61.7507 25.0125 60.3793 24.235 59.429 23.2631C58.5003 22.2913 58.036 21.0062 58.036 19.408C58.036 18.0474 58.3599 16.8812 59.0079 15.9093C59.6774 14.9374 60.5953 14.1923 61.7615 13.674C62.9277 13.1557 64.256 12.8965 65.7462 12.8965C67.2796 12.8965 68.6186 13.1664 69.7633 13.7064C70.9295 14.2247 71.8474 14.9806 72.5169 15.9741C73.208 16.9676 73.5644 18.1338 73.586 19.4728H68.921C68.8994 18.9761 68.7482 18.5118 68.4674 18.0798C68.2083 17.6263 67.8411 17.2699 67.366 17.0107C66.8908 16.73 66.3293 16.5896 65.6814 16.5896C65.1199 16.568 64.6015 16.6544 64.1264 16.8488C63.6728 17.0431 63.3057 17.3347 63.0249 17.7235C62.7658 18.0906 62.6362 18.5549 62.6362 19.1165C62.6362 19.6564 62.7658 20.1099 63.0249 20.4771C63.3057 20.8443 63.6837 21.1682 64.1588 21.449C64.6339 21.7081 65.1954 21.9565 65.8434 22.1941C66.4913 22.41 67.1932 22.6368 67.9491 22.8744C69.0721 23.2631 70.1088 23.7275 71.0591 24.2674C72.0094 24.7857 72.7653 25.466 73.3268 26.3083C73.8883 27.1506 74.1691 28.2629 74.1691 29.6451C74.1691 30.833 73.8559 31.9344 73.2296 32.9495C72.6033 33.9645 71.6962 34.7852 70.5084 35.4116C69.3421 36.0379 67.8843 36.351 66.1349 36.351Z" fill="white"/>
<defs>
<filter id="filter0_d_2958_23855" x="0.840358" y="0.475098" width="49.3693" height="49.3691" filterUnits="userSpaceOnUse" color-interpolation-filters="sRGB">
<feFlood flood-opacity="0" result="BackgroundImageFix"/>
<feColorMatrix in="SourceAlpha" type="matrix" values="0 0 0 0 0 0 0 0 0 0 0 0 0 0 0 0 0 0 127 0" result="hardAlpha"/>
<feOffset dy="0.159642"/>
<feGaussianBlur stdDeviation="0.079821"/>
<feComposite in2="hardAlpha" operator="out"/>
<feColorMatrix type="matrix" values="0 0 0 0 0 0 0 0 0 0 0 0 0 0 0 0 0 0 0.25 0"/>
<feBlend mode="normal" in2="BackgroundImageFix" result="effect1_dropShadow_2958_23855"/>
<feBlend mode="normal" in="SourceGraphic" in2="effect1_dropShadow_2958_23855" result="shape"/>
</filter>
<filter id="filter1_d_2958_23855" x="8.72506" y="8.2001" width="34.6975" height="35.0918" filterUnits="userSpaceOnUse" color-interpolation-filters="sRGB">
<feFlood flood-opacity="0" result="BackgroundImageFix"/>
<feColorMatrix in="SourceAlpha" type="matrix" values="0 0 0 0 0 0 0 0 0 0 0 0 0 0 0 0 0 0 127 0" result="hardAlpha"/>
<feOffset dx="0.6" dy="0.6"/>
<feGaussianBlur stdDeviation="0.5625"/>
<feComposite in2="hardAlpha" operator="out"/>
<feColorMatrix type="matrix" values="0 0 0 0 0 0 0 0 0 0 0 0 0 0 0 0 0 0 0.13 0"/>
<feBlend mode="normal" in2="BackgroundImageFix" result="effect1_dropShadow_2958_23855"/>
<feBlend mode="normal" in="SourceGraphic" in2="effect1_dropShadow_2958_23855" result="shape"/>
</filter>
</defs>
</svg>
